<svg xmlns="http://www.w3.org/2000/svg" width="116" height="28" viewBox="0 0 112 27"><g transform="scale(1 0.5)"><path d="M10 30 Q6 27 7 22 L7 17 Q7 13 12 13 L26 12 Q34 11.5 42 10 L60 9 Q72 8.5 80 11 L84 14 Q86 16 86 19 L86 22 Q86 25 83 27 L74 29 Q62 31 54 33 L47 35 Q40 38 33 39 L25 39 Q16 39 10 36 Z" fill="#45454f" stroke="#17171c" stroke-width="0.9" stroke-linejoin="round" stroke-linecap="round"/><path d="M16 19 L16 29 Q20 31 25 31 L25 19 Z" fill="#232329" stroke="#17171c" stroke-width="0.6" stroke-linejoin="round" stroke-linecap="round"/><path d="M10 33 L10 36 Q13 39 25 39 L25 35 Q16 35 12 33 Z" fill="#33333b" stroke="#17171c" stroke-width="0.6" stroke-linejoin="round" stroke-linecap="round"/><path d="M30 13 L42 10.8 L55 10 L70 9.5 Q78 9.3 82 11.5 L82 15 L44 16 Z" fill="#33333b" stroke="#17171c" stroke-width="0.6" stroke-linejoin="round" stroke-linecap="round"/><path d="M27 12.5 L30 12.5 L30 16 L27 16 Z" fill="#232329" stroke="#17171c" stroke-width="0.5" stroke-linejoin="round" stroke-linecap="round"/><path d="M42 11 L44 5.2 L47 3.6 L50 3.6 L53 4 L56 3.8 L62 3.5 Q67 3.4 70 4.2 L71.5 6 L71.5 9 L70 9.5 L60 10 L50 11.5 Z" fill="#45454f" stroke="#17171c" stroke-width="0.8" stroke-linejoin="round" stroke-linecap="round"/><path d="M46 5.6 L48 4.8 L51 4.9 L53.5 5 L58 4.8 Q62 4.7 65 5.4 L66 7 L46 7.4 Z" fill="#232329" stroke="#17171c" stroke-width="0.5" stroke-linejoin="round" stroke-linecap="round"/><path d="M43 5 L44.5 3.6 L46.5 3.8 L45.8 5.2 Z" fill="#232329" stroke="#17171c" stroke-width="0.5" stroke-linejoin="round" stroke-linecap="round"/><path d="M60 3.6 L60 5.3" fill="#c9c9d2" stroke="#17171c" stroke-width="1.1" stroke-linejoin="round" stroke-linecap="round"/><path d="M68.5 4.2 L70 2.9 L72 2.9 L71.4 4.4 Z" fill="#232329" stroke="#17171c" stroke-width="0.5" stroke-linejoin="round" stroke-linecap="round"/><path d="M71 4.4 L71 5.6 L72.5 5.6 L72.5 4.6 Z" fill="#17171c" stroke="#17171c" stroke-width="0.5" stroke-linejoin="round" stroke-linecap="round"/><path d="M34 13.5 L38 13 L38 15.5 L34 16 Z" fill="#232329" stroke="#17171c" stroke-width="0.5" stroke-linejoin="round" stroke-linecap="round"/><path d="M35.4 13.6 L37.2 15.4" fill="#c9c9d2" stroke="#17171c" stroke-width="0.5" stroke-linejoin="round" stroke-linecap="round"/><path d="M53 32 L55.5 32 L58 45 L59 47.5 L56.5 47.5 L54 45 L52 35 Z" fill="#232329" stroke="#17171c" stroke-width="0.7" stroke-linejoin="round" stroke-linecap="round"/><path d="M51.5 30 L53.5 30 L53.5 32 L51.5 32.5 Z" fill="#33333b" stroke="#17171c" stroke-width="0.5" stroke-linejoin="round" stroke-linecap="round"/><path d="M44 36 L46.5 36 L46.5 47 Q46.5 48.5 45 48.5 L43.5 48.5 Q42.5 48.5 42.8 47 L44 39 Z" fill="#232329" stroke="#17171c" stroke-width="0.7" stroke-linejoin="round" stroke-linecap="round"/><path d="M43.3 40.5 L45.6 40.5" fill="#33333b" stroke="#17171c" stroke-width="0.45" stroke-linejoin="round" stroke-linecap="round"/><path d="M43.3 42 L45.6 42" fill="#33333b" stroke="#17171c" stroke-width="0.45" stroke-linejoin="round" stroke-linecap="round"/><path d="M43.3 43.5 L45.6 43.5" fill="#33333b" stroke="#17171c" stroke-width="0.45" stroke-linejoin="round" stroke-linecap="round"/><path d="M43.3 45 L45.6 45" fill="#33333b" stroke="#17171c" stroke-width="0.45" stroke-linejoin="round" stroke-linecap="round"/><path d="M43 48.3 L45.6 48.3" fill="#17171c" stroke="#17171c" stroke-width="0.7" stroke-linejoin="round" stroke-linecap="round"/><path d="M42.6 44 L41.4 42.5 Q41.3 41.6 42.4 41.6 L44.4 41.8" fill="#33333b" stroke="#17171c" stroke-width="0.7" stroke-linejoin="round" stroke-linecap="round"/><path d="M43.8 35.5 L43.6 38 L46 37.6 L47 38.5 Q47.5 40.5 46.5 42 L43 42.6 Q41.5 43 41.8 44.5 L41.6 45" fill="#17171c" stroke="#17171c" stroke-width="0.8" stroke-linejoin="round" stroke-linecap="round"/><path d="M56 34 L58.5 34 L59.5 39 Q59.8 41 58.3 41.5 L56.8 41 Q55.8 40.8 56 39 Z" fill="#33333b" stroke="#17171c" stroke-width="0.6" stroke-linejoin="round" stroke-linecap="round"/><path d="M72 11 L74 11.5 L76 22 L76 27 L72.5 29 L70 29 Q68 29 68.2 27 L70 16 Z" fill="#45454f" stroke="#17171c" stroke-width="0.6" stroke-linejoin="round" stroke-linecap="round"/><path d="M69.4 14 L69.4 26" fill="#17171c" stroke="#17171c" stroke-width="0.5" stroke-linejoin="round" stroke-linecap="round"/><path d="M70.8 14 L70.8 26" fill="#17171c" stroke="#17171c" stroke-width="0.5" stroke-linejoin="round" stroke-linecap="round"/><path d="M72.2 14 L72.2 26" fill="#17171c" stroke="#17171c" stroke-width="0.5" stroke-linejoin="round" stroke-linecap="round"/><path d="M73.6 14 L73.6 26" fill="#17171c" stroke="#17171c" stroke-width="0.5" stroke-linejoin="round" stroke-linecap="round"/><path d="M76 15 L106 15.4 L107.5 16 L108 18 L108 20 L107.5 21.5 L104 22 L76 21.5 Z" fill="#33333b" stroke="#17171c" stroke-width="0.8" stroke-linejoin="round" stroke-linecap="round"/><path d="M101 15.6 L101 21.4" fill="#17171c" stroke="#17171c" stroke-width="0.7" stroke-linejoin="round" stroke-linecap="round"/><path d="M103 15.6 L103 21.4" fill="#17171c" stroke="#17171c" stroke-width="0.7" stroke-linejoin="round" stroke-linecap="round"/><path d="M105 15.6 L105 21.4" fill="#17171c" stroke="#17171c" stroke-width="0.7" stroke-linejoin="round" stroke-linecap="round"/><path d="M82 15 L82 21.5" fill="#17171c" stroke="#17171c" stroke-width="0.9" stroke-linejoin="round" stroke-linecap="round"/><path d="M104 14.2 L105.2 13.2 L106.6 13.4 L105.8 15.4 L104.6 15.4 Z" fill="#232329" stroke="#17171c" stroke-width="0.5" stroke-linejoin="round" stroke-linecap="round"/><path d="M94 21.6 L94.8 23.2 L93.4 23.2 Z" fill="#232329" stroke="#17171c" stroke-width="0.5" stroke-linejoin="round" stroke-linecap="round"/><path d="M14 13.5 L26 12.5 L40 11.2 L60 10 L74 10.5 L78 13.5" fill="#c9c9d2" stroke="#17171c" stroke-width="1.0" stroke-linejoin="round" stroke-linecap="round"/><path d="M10 26 L10 19 Q10 16 13 15 L15 15 L15 27 Q10 28 10 26 Z" fill="#232329" stroke="#17171c" stroke-width="0.5" stroke-linejoin="round" stroke-linecap="round"/></g></svg>